<svg xmlns="http://www.w3.org/2000/svg" viewBox="0 0 64 64" width="64" height="64" role="img" aria-label="Lumi Icons">
  <!-- Single-color mark: inherits currentColor, for use on any background. -->
  <ellipse cx="33" cy="54" rx="15" ry="2.4" fill="currentColor" opacity=".14"/>
  <g fill="none" stroke="currentColor" stroke-width="9" stroke-linecap="round" stroke-linejoin="round">
    <g opacity=".36">
      <path d="M20 14v28h20" transform="translate(3.2 4)"/>
      <path d="M20 14v28h20" transform="translate(2.4 3)"/>
      <path d="M20 14v28h20" transform="translate(1.6 2)"/>
      <path d="M20 14v28h20" transform="translate(.8 1)"/>
    </g>
    <path d="M20 14v28h20"/>
  </g>
  <path d="M43 13c.9 4.8 3 6.9 7.8 7.8-4.8.9-6.9 3-7.8 7.8-.9-4.8-3-6.9-7.8-7.8 4.8-.9 6.9-3 7.8-7.8Z" fill="currentColor"/>
  <circle cx="52.5" cy="9.5" r="1.9" fill="currentColor"/>
</svg>
