<svg xmlns="http://www.w3.org/2000/svg" viewBox="0 0 288 64" width="288" height="64" role="img" aria-label="Lumi Icons">
  <defs>
    <linearGradient id="lumi-tile" x1="10" y1="4" x2="54" y2="62" gradientUnits="userSpaceOnUse">
      <stop offset="0" stop-color="#8d71f6"/>
      <stop offset="1" stop-color="#4f31c2"/>
    </linearGradient>
    <radialGradient id="lumi-shine" cx="16" cy="8" r="44" gradientUnits="userSpaceOnUse">
      <stop offset="0" stop-color="#fff" stop-opacity=".32"/>
      <stop offset="1" stop-color="#fff" stop-opacity="0"/>
    </radialGradient>
    <radialGradient id="lumi-glow" cx="43" cy="22" r="13" gradientUnits="userSpaceOnUse">
      <stop offset="0" stop-color="#ffd76a" stop-opacity=".55"/>
      <stop offset="1" stop-color="#ffd76a" stop-opacity="0"/>
    </radialGradient>
  </defs>

  <!-- Mark -->
  <rect x="2" y="2" width="60" height="60" rx="16" fill="url(#lumi-tile)"/>
  <rect x="2" y="2" width="60" height="60" rx="16" fill="url(#lumi-shine)"/>
  <ellipse cx="35" cy="50.5" rx="15" ry="2.4" fill="#26127a" opacity=".32"/>
  <g fill="none" stroke="#cbbfff" stroke-width="9" stroke-linecap="round" stroke-linejoin="round">
    <path d="M23 18v24h18" transform="translate(3.2 4)"/>
    <path d="M23 18v24h18" transform="translate(2.4 3)"/>
    <path d="M23 18v24h18" transform="translate(1.6 2)"/>
    <path d="M23 18v24h18" transform="translate(.8 1)"/>
  </g>
  <path d="M23 18v24h18" fill="none" stroke="#fff" stroke-width="9" stroke-linecap="round" stroke-linejoin="round"/>
  <circle cx="43" cy="22" r="13" fill="url(#lumi-glow)"/>
  <path d="M43 15c.8 4.3 2.7 6.2 7 7-4.3.8-6.2 2.7-7 7-.8-4.3-2.7-6.2-7-7 4.3-.8 6.2-2.7 7-7Z" fill="#ffd76a"/>
  <circle cx="51.5" cy="12.5" r="1.7" fill="#ffe7a3"/>

  <!-- Wordmark: monoline letters built from the same rounded strokes as the icons -->
  <g fill="none" stroke-width="5.5" stroke-linecap="round" stroke-linejoin="round">
    <!-- lumi -->
    <path stroke="#efedf7" d="M84 14v30M96 26v9a7 7 0 0 0 14 0v-9m0 0v18M122 44V26m0 6.5a6.5 6.5 0 0 1 13 0V44m0-11.5a6.5 6.5 0 0 1 13 0V44M160 26v18"/>
    <!-- icons -->
    <path stroke="#a893ff" d="M180 26v18M203.5 29.6a7 7 0 1 0 0 10.8"/>
    <circle cx="218" cy="35" r="7" stroke="#a893ff"/>
    <path stroke="#a893ff" d="M237 44V26m0 7a7 7 0 0 1 14 0v11M273 28.8c-1.2-1.6-3-2.5-5.2-2.5-3 0-5.3 1.7-5.3 4.1 0 5.7 11 2.9 11 8.7 0 2.5-2.4 4.4-5.7 4.4-2.4 0-4.5-1-5.8-2.8"/>
  </g>
  <circle cx="160" cy="16.5" r="3.4" fill="#efedf7"/>
  <circle cx="180" cy="16.5" r="3.4" fill="#a893ff"/>
</svg>
